<?xml version="1.0" encoding="UTF-8"?>
<svg xmlns="http://www.w3.org/2000/svg" viewBox="0 0 348.2 348.2" width="1024" height="1024">
  <rect fill="#184A55" width="348.2" height="348.2"/>
  <polygon fill="white" points="150.15,228.21 150.15,146.1 174.1,132.42 198.05,146.1 174.1,159.79 174.1,187.16 198.05,173.47 198.05,200.84 174.1,214.53 174.1,241.9 222,214.53 222,187.16 198.27,173.35 222,159.79 222,132.42 174.1,105.04 126.2,132.42 126.2,214.53"/>
  <path fill="white" fill-rule="nonzero" d="M174.1 90.18c23.17,0 44.15,9.39 59.34,24.58 15.18,15.18 24.57,36.15 24.58,59.31l-4.19 0c-0.01,-22 -8.93,-41.93 -23.35,-56.35 -14.43,-14.43 -34.36,-23.35 -56.38,-23.35 -22.02,0 -41.95,8.92 -56.38,23.35 -11.24,11.24 -19.13,25.81 -22.08,42.11l-4.25 0c2.99,-17.46 11.37,-33.07 23.37,-45.07 15.19,-15.19 36.17,-24.58 59.34,-24.58zm-79.73 84.63c0.19,21.74 9.07,41.4 23.35,55.67 14.43,14.43 34.36,23.35 56.38,23.35 22.02,0 41.95,-8.92 56.38,-23.35 11.24,-11.24 19.13,-25.81 22.08,-42.11l4.25 0c-2.99,17.46 -11.37,33.07 -23.37,45.07 -15.19,15.19 -36.17,24.58 -59.34,24.58 -23.17,0 -44.15,-9.39 -59.34,-24.58 -15.03,-15.03 -24.39,-35.74 -24.58,-58.63l4.19 0z"/>
  <polygon fill="white" points="92.27,164.02 95.83,174.1 99.39,184.19 92.27,184.19 85.15,184.19 88.71,174.1"/>
  <polygon fill="white" points="263.05,164.02 259.49,174.1 255.93,184.19 252.37,174.1 248.81,164.02 255.93,164.02"/>
</svg>
